<svg width="218" height="19" viewBox="0 0 218 19" fill="none" xmlns="http://www.w3.org/2000/svg">
<path d="M10.0054 18.275C8.02204 18.275 6.3387 17.9 4.95537 17.15C3.5887 16.4 2.54704 15.35 1.83037 14C1.1137 12.65 0.755371 11.0667 0.755371 9.25C0.755371 7.85 0.963704 6.59167 1.38037 5.475C1.8137 4.34167 2.43037 3.38333 3.23037 2.6C4.04704 1.8 5.03037 1.18333 6.18037 0.749999C7.34704 0.316666 8.6637 0.0999995 10.1304 0.0999995C11.0304 0.0999995 11.9304 0.199999 12.8304 0.399999C13.7304 0.599999 14.597 0.933333 15.4304 1.4C15.7804 1.6 16.0137 1.85833 16.1304 2.175C16.2637 2.475 16.297 2.8 16.2304 3.15C16.1804 3.48333 16.047 3.78333 15.8304 4.05C15.6304 4.3 15.3637 4.46667 15.0304 4.55C14.7137 4.61667 14.347 4.55 13.9304 4.35C13.3804 4.05 12.797 3.83333 12.1804 3.7C11.5637 3.55 10.8887 3.475 10.1554 3.475C8.97204 3.475 7.98037 3.7 7.18037 4.15C6.38037 4.58333 5.78037 5.23333 5.38037 6.1C4.99704 6.95 4.80537 8 4.80537 9.25C4.80537 11.1333 5.25537 12.5583 6.15537 13.525C7.07204 14.4917 8.42204 14.975 10.2054 14.975C10.8054 14.975 11.422 14.9167 12.0554 14.8C12.6887 14.6833 13.3137 14.5167 13.9304 14.3L13.2054 15.875V11.075H10.9554C10.4554 11.075 10.072 10.95 9.80537 10.7C9.53871 10.45 9.40537 10.1083 9.40537 9.675C9.40537 9.225 9.53871 8.88333 9.80537 8.65C10.072 8.4 10.4554 8.275 10.9554 8.275H14.8804C15.3804 8.275 15.7554 8.40833 16.0054 8.675C16.272 8.94167 16.4054 9.325 16.4054 9.825V15.625C16.4054 16.0583 16.322 16.425 16.1554 16.725C15.9887 17.025 15.7054 17.2417 15.3054 17.375C14.5554 17.6417 13.7137 17.8583 12.7804 18.025C11.847 18.1917 10.922 18.275 10.0054 18.275ZM24.0351 18.225C23.4017 18.225 22.9184 18.05 22.5851 17.7C22.2517 17.35 22.0851 16.8583 22.0851 16.225V2.35C22.0851 1.7 22.2517 1.20833 22.5851 0.874998C22.9351 0.541665 23.4267 0.374999 24.0601 0.374999H30.1351C32.1017 0.374999 33.6184 0.849999 34.6851 1.8C35.7517 2.75 36.2851 4.075 36.2851 5.775C36.2851 6.875 36.0434 7.825 35.5601 8.625C35.0767 9.425 34.3767 10.0417 33.4601 10.475C32.5601 10.9083 31.4517 11.125 30.1351 11.125L30.3351 10.7H31.3601C32.0601 10.7 32.6684 10.875 33.1851 11.225C33.7184 11.5583 34.1767 12.075 34.5601 12.775L36.1101 15.65C36.3434 16.0667 36.4517 16.475 36.4351 16.875C36.4184 17.275 36.2684 17.6 35.9851 17.85C35.7017 18.1 35.2851 18.225 34.7351 18.225C34.1851 18.225 33.7351 18.1083 33.3851 17.875C33.0517 17.6417 32.7517 17.2833 32.4851 16.8L30.0851 12.375C29.8351 11.9083 29.5267 11.5917 29.1601 11.425C28.8101 11.2583 28.3767 11.175 27.8601 11.175H25.9601V16.225C25.9601 16.8583 25.7934 17.35 25.4601 17.7C25.1434 18.05 24.6684 18.225 24.0351 18.225ZM25.9601 8.375H29.4351C30.4684 8.375 31.2434 8.16667 31.7601 7.75C32.2934 7.33333 32.5601 6.70833 32.5601 5.875C32.5601 5.05833 32.2934 4.44167 31.7601 4.025C31.2434 3.60833 30.4684 3.4 29.4351 3.4H25.9601V8.375ZM43.7673 18C43.1173 18 42.6173 17.825 42.2673 17.475C41.9173 17.125 41.7423 16.625 41.7423 15.975V2.4C41.7423 1.75 41.9173 1.25 42.2673 0.9C42.6173 0.549999 43.1173 0.374999 43.7673 0.374999H52.4923C52.9923 0.374999 53.3673 0.508333 53.6173 0.775C53.884 1.025 54.0173 1.39167 54.0173 1.875C54.0173 2.375 53.884 2.75833 53.6173 3.025C53.3673 3.275 52.9923 3.4 52.4923 3.4H45.4423V7.525H51.9173C52.434 7.525 52.8173 7.65833 53.0673 7.925C53.334 8.175 53.4673 8.55 53.4673 9.05C53.4673 9.55 53.334 9.93333 53.0673 10.2C52.8173 10.45 52.434 10.575 51.9173 10.575H45.4423V14.975H52.4923C52.9923 14.975 53.3673 15.1083 53.6173 15.375C53.884 15.625 54.0173 15.9917 54.0173 16.475C54.0173 16.975 53.884 17.3583 53.6173 17.625C53.3673 17.875 52.9923 18 52.4923 18H43.7673ZM61.154 18C60.504 18 60.004 17.825 59.654 17.475C59.304 17.125 59.129 16.625 59.129 15.975V2.4C59.129 1.75 59.304 1.25 59.654 0.9C60.004 0.549999 60.504 0.374999 61.154 0.374999H69.879C70.379 0.374999 70.754 0.508333 71.004 0.775C71.2707 1.025 71.404 1.39167 71.404 1.875C71.404 2.375 71.2707 2.75833 71.004 3.025C70.754 3.275 70.379 3.4 69.879 3.4H62.829V7.525H69.304C69.8207 7.525 70.204 7.65833 70.454 7.925C70.7207 8.175 70.854 8.55 70.854 9.05C70.854 9.55 70.7207 9.93333 70.454 10.2C70.204 10.45 69.8207 10.575 69.304 10.575H62.829V14.975H69.879C70.379 14.975 70.754 15.1083 71.004 15.375C71.2707 15.625 71.404 15.9917 71.404 16.475C71.404 16.975 71.2707 17.3583 71.004 17.625C70.754 17.875 70.379 18 69.879 18H61.154ZM78.3157 18.225C77.7324 18.225 77.2824 18.0667 76.9657 17.75C76.6657 17.4167 76.5157 16.95 76.5157 16.35V2.1C76.5157 1.46667 76.6657 0.983333 76.9657 0.65C77.2824 0.316666 77.6991 0.149999 78.2157 0.149999C78.6657 0.149999 79.0074 0.241666 79.2407 0.425C79.4907 0.591666 79.7741 0.874999 80.0907 1.275L88.8657 12.45H88.1907V2C88.1907 1.41667 88.3407 0.966666 88.6407 0.65C88.9574 0.316666 89.4074 0.149999 89.9907 0.149999C90.5741 0.149999 91.0157 0.316666 91.3157 0.65C91.6324 0.966666 91.7907 1.41667 91.7907 2V16.425C91.7907 16.975 91.6491 17.4167 91.3657 17.75C91.0824 18.0667 90.6991 18.225 90.2157 18.225C89.7491 18.225 89.3741 18.1333 89.0907 17.95C88.8241 17.7667 88.5324 17.475 88.2157 17.075L79.4657 5.9H80.1157V16.35C80.1157 16.95 79.9657 17.4167 79.6657 17.75C79.3657 18.0667 78.9157 18.225 78.3157 18.225ZM106.471 18.2C105.905 18.2167 105.463 18.0667 105.146 17.75C104.83 17.4333 104.671 17.025 104.671 16.525C104.671 16.1417 104.788 15.8083 105.021 15.525C105.238 15.225 105.563 15.0667 105.996 15.05L106.721 15C107.388 14.95 107.888 14.7583 108.221 14.425C108.555 14.0917 108.721 13.5833 108.721 12.9V2.125C108.721 1.49167 108.888 1.00833 109.221 0.675C109.555 0.324999 110.03 0.149999 110.646 0.149999C111.28 0.149999 111.763 0.324999 112.096 0.675C112.43 1.00833 112.596 1.49167 112.596 2.125V12.85C112.596 13.95 112.396 14.8833 111.996 15.65C111.613 16.4 111.03 16.9833 110.246 17.4C109.463 17.8167 108.496 18.0667 107.346 18.15L106.471 18.2ZM126.548 18.275C124.815 18.275 123.29 17.9 121.973 17.15C120.673 16.3833 119.656 15.3167 118.923 13.95C118.206 12.5833 117.848 10.9917 117.848 9.175C117.848 7.79167 118.048 6.55 118.448 5.45C118.865 4.33333 119.456 3.38333 120.223 2.6C120.99 1.8 121.906 1.18333 122.973 0.749999C124.056 0.316666 125.248 0.0999995 126.548 0.0999995C128.315 0.0999995 129.848 0.475 131.148 1.225C132.448 1.975 133.456 3.03333 134.173 4.4C134.906 5.75 135.273 7.33333 135.273 9.15C135.273 10.5333 135.065 11.7833 134.648 12.9C134.231 14.0167 133.64 14.975 132.873 15.775C132.106 16.575 131.19 17.1917 130.123 17.625C129.056 18.0583 127.865 18.275 126.548 18.275ZM126.548 14.975C127.531 14.975 128.365 14.75 129.048 14.3C129.748 13.8333 130.281 13.1667 130.648 12.3C131.031 11.4167 131.223 10.375 131.223 9.175C131.223 7.34167 130.815 5.925 129.998 4.925C129.181 3.90833 128.031 3.4 126.548 3.4C125.581 3.4 124.748 3.625 124.048 4.075C123.348 4.525 122.815 5.18333 122.448 6.05C122.081 6.91667 121.898 7.95833 121.898 9.175C121.898 10.9917 122.306 12.4167 123.123 13.45C123.94 14.4667 125.081 14.975 126.548 14.975ZM142.471 18.225C141.837 18.225 141.354 18.05 141.021 17.7C140.687 17.35 140.521 16.8583 140.521 16.225V2.35C140.521 1.7 140.687 1.20833 141.021 0.874998C141.371 0.541665 141.862 0.374999 142.496 0.374999H148.571C150.537 0.374999 152.054 0.849999 153.121 1.8C154.187 2.75 154.721 4.075 154.721 5.775C154.721 6.875 154.479 7.825 153.996 8.625C153.512 9.425 152.812 10.0417 151.896 10.475C150.996 10.9083 149.887 11.125 148.571 11.125L148.771 10.7H149.796C150.496 10.7 151.104 10.875 151.621 11.225C152.154 11.5583 152.612 12.075 152.996 12.775L154.546 15.65C154.779 16.0667 154.887 16.475 154.871 16.875C154.854 17.275 154.704 17.6 154.421 17.85C154.137 18.1 153.721 18.225 153.171 18.225C152.621 18.225 152.171 18.1083 151.821 17.875C151.487 17.6417 151.187 17.2833 150.921 16.8L148.521 12.375C148.271 11.9083 147.962 11.5917 147.596 11.425C147.246 11.2583 146.812 11.175 146.296 11.175H144.396V16.225C144.396 16.8583 144.229 17.35 143.896 17.7C143.579 18.05 143.104 18.225 142.471 18.225ZM144.396 8.375H147.871C148.904 8.375 149.679 8.16667 150.196 7.75C150.729 7.33333 150.996 6.70833 150.996 5.875C150.996 5.05833 150.729 4.44167 150.196 4.025C149.679 3.60833 148.904 3.4 147.871 3.4H144.396V8.375ZM162.203 18C161.553 18 161.053 17.825 160.703 17.475C160.353 17.125 160.178 16.625 160.178 15.975V2.4C160.178 1.75 160.353 1.25 160.703 0.9C161.053 0.549999 161.553 0.374999 162.203 0.374999H167.078C170.094 0.374999 172.419 1.14167 174.053 2.675C175.703 4.19167 176.528 6.35833 176.528 9.175C176.528 10.5917 176.311 11.85 175.878 12.95C175.461 14.0333 174.853 14.95 174.053 15.7C173.253 16.45 172.269 17.025 171.103 17.425C169.936 17.8083 168.594 18 167.078 18H162.203ZM164.053 14.825H166.853C167.803 14.825 168.628 14.7083 169.328 14.475C170.028 14.2417 170.611 13.8917 171.078 13.425C171.544 12.9583 171.894 12.375 172.128 11.675C172.361 10.9583 172.478 10.125 172.478 9.175C172.478 7.275 172.003 5.86667 171.053 4.95C170.119 4.01667 168.719 3.55 166.853 3.55H164.053V14.825ZM181.873 18.225C181.406 18.225 181.023 18.1167 180.723 17.9C180.44 17.6833 180.256 17.3917 180.173 17.025C180.106 16.6583 180.181 16.25 180.398 15.8L186.798 1.775C187.065 1.20833 187.381 0.799999 187.748 0.55C188.115 0.283332 188.54 0.149999 189.023 0.149999C189.506 0.149999 189.931 0.283332 190.298 0.55C190.665 0.799999 190.973 1.20833 191.223 1.775L197.673 15.8C197.89 16.25 197.965 16.6667 197.898 17.05C197.848 17.4167 197.681 17.7083 197.398 17.925C197.115 18.125 196.748 18.225 196.298 18.225C195.731 18.225 195.29 18.0917 194.973 17.825C194.673 17.5583 194.406 17.1417 194.173 16.575L192.673 13.1L194.223 14.175H183.798L185.348 13.1L183.873 16.575C183.623 17.1583 183.356 17.5833 183.073 17.85C182.806 18.1 182.406 18.225 181.873 18.225ZM188.973 4.5L185.773 12.125L185.098 11.15H192.923L192.248 12.125L189.023 4.5H188.973ZM204.246 18.225C203.663 18.225 203.213 18.0667 202.896 17.75C202.596 17.4167 202.446 16.95 202.446 16.35V2.1C202.446 1.46667 202.596 0.983333 202.896 0.65C203.213 0.316666 203.63 0.149999 204.146 0.149999C204.596 0.149999 204.938 0.241666 205.171 0.425C205.421 0.591666 205.705 0.874999 206.021 1.275L214.796 12.45H214.121V2C214.121 1.41667 214.271 0.966666 214.571 0.65C214.888 0.316666 215.338 0.149999 215.921 0.149999C216.505 0.149999 216.946 0.316666 217.246 0.65C217.563 0.966666 217.721 1.41667 217.721 2V16.425C217.721 16.975 217.58 17.4167 217.296 17.75C217.013 18.0667 216.63 18.225 216.146 18.225C215.68 18.225 215.305 18.1333 215.021 17.95C214.755 17.7667 214.463 17.475 214.146 17.075L205.396 5.9H206.046V16.35C206.046 16.95 205.896 17.4167 205.596 17.75C205.296 18.0667 204.846 18.225 204.246 18.225Z" fill="url(#paint0_linear_109_50)"/>
<defs>
<linearGradient id="paint0_linear_109_50" x1="-19" y1="8" x2="238" y2="8" gradientUnits="userSpaceOnUse">
<stop stop-color="#FA0000"/>
<stop offset="0.265061" stop-color="white"/>
<stop offset="0.640066" stop-color="#34CA31"/>
<stop offset="1" stop-color="#505050"/>
</linearGradient>
</defs>
</svg>
