<svg width="220" height="220" viewBox="0 0 220 220" fill="none" xmlns="http://www.w3.org/2000/svg">
<circle cx="110" cy="110" r="110" fill="#37464F"/>
<path d="M126.224 126.224L156.24 116.219C158.89 110.212 160.981 104.007 162.618 97.9497H140.362L164.569 89.8801C168.63 71.0469 168.638 55.5345 168.638 55.5345C168.638 55.5345 97.9481 41.3966 69.6724 69.6724C41.3966 97.9481 55.5345 126.224 55.5345 126.224L112.086 97.9481L55.5345 140.362V168.638H69.6724V154.5C69.6724 154.5 112.086 168.638 140.362 140.362C144.543 136.18 148.094 131.369 151.13 126.224H126.224Z" fill="url(#paint0_linear_116_2)"/>
<defs>
<linearGradient id="paint0_linear_116_2" x1="110.319" y1="52" x2="110.319" y2="168.638" gradientUnits="userSpaceOnUse">
<stop stop-color="#8AC149"/>
<stop offset="1" stop-color="#547D24"/>
</linearGradient>
</defs>
</svg>
